# xmcd
#
# Track frame offsets:
# 150
# 20034
# 37213
# 56125
# 69662
# 89306
# 115220
# 140975
# 160929
# 176965
# 193552
# 207133
# 228341
# 247048
#
# Disc length: 3487 seconds
#
# Revision: 0
# Processed by: cddbd v1.4PL0 Copyright (c) Steve Scherf et al.
# Submitted via: Audion 3.0.2 (http://www.panic.com/audion/)
#
DISCID=d70d9d0e
DTITLE=Stephane Delicq - La discrete
DYEAR=1900
DGENRE=
TTITLE0=La luna
TTITLE1=Octobre Rouge
TTITLE2=Loubov
TTITLE3=La Seduisante
TTITLE4=Les Yeux de Jeanne
TTITLE5=Les amities
TTITLE6=B. Leza
TTITLE7=Rosa
TTITLE8=Scottisch Seudoise
TTITLE9=La Discrete
TTITLE10=Scottisch a l'Amante
TTITLE11=Jaccquou
TTITLE12=Les Bas Noirs
TTITLE13=Marta
EXTD=
EXTT0=
EXTT1=
EXTT2=
EXTT3=
EXTT4=
EXTT5=
EXTT6=
EXTT7=
EXTT8=
EXTT9=
EXTT10=
EXTT11=
EXTT12=
EXTT13=
PLAYORDER=
